<svg width="40" height="40" viewBox="0 0 40 40" fill="none" xmlns="http://www.w3.org/2000/svg">
<g clip-path="url(#clip0_35_2606)">
<path d="M27.3418 27.342L34.7331 34.7333" stroke="white" stroke-width="2.59565" stroke-linecap="round" stroke-linejoin="round"/>
<path d="M18.1029 29.8057C24.5662 29.8057 29.8058 24.5661 29.8058 18.1028C29.8058 11.6395 24.5662 6.3999 18.1029 6.3999C11.6395 6.3999 6.3999 11.6395 6.3999 18.1028C6.3999 24.5661 11.6395 29.8057 18.1029 29.8057Z" stroke="white" stroke-width="2.59565" stroke-linecap="round" stroke-linejoin="round"/>
<path d="M18.3 10.3667C19.2017 10.3667 20.0665 10.7249 20.7042 11.3625C21.3418 12.0002 21.7 12.865 21.7 13.7667C21.7 14.6684 21.3418 15.5332 20.7042 16.1709C20.0665 16.8085 19.2017 17.1667 18.3 17.1667C17.3983 17.1667 16.5335 16.8085 15.8958 16.1709C15.2582 15.5332 14.9 14.6684 14.9 13.7667C14.9 12.865 15.2582 12.0002 15.8958 11.3625C16.5335 10.7249 17.3983 10.3667 18.3 10.3667ZM18.3 18.8667C22.057 18.8667 25.1 20.3882 25.1 22.2667V23.9667H11.5V22.2667C11.5 20.3882 14.543 18.8667 18.3 18.8667Z" fill="white"/>
</g>
<defs>
<clipPath id="clip0_35_2606">
<rect width="34" height="34" fill="white" transform="translate(3 3)"/>
</clipPath>
</defs>
</svg>
