<svg width="32" height="32" viewBox="0 0 32 32" fill="none" xmlns="http://www.w3.org/2000/svg">
<rect width="32" height="32" rx="16" fill="#BBC1C7"/>
<g clip-path="url(#clip0_60_21)">
<path d="M25.5811 12.0449C25.5361 11.0247 25.3711 10.3233 25.1348 9.71561C24.891 9.07052 24.5159 8.49296 24.0245 8.01284C23.5444 7.52524 22.963 7.14636 22.3254 6.90637C21.7142 6.67005 21.0165 6.50507 19.9963 6.46009C18.9685 6.41131 18.6422 6.40002 16.0355 6.40002C13.4287 6.40002 13.1024 6.41131 12.0784 6.45629C11.0583 6.50126 10.3569 6.66639 9.74933 6.90256C9.10409 7.14636 8.52653 7.52143 8.04641 8.01284C7.55881 8.49296 7.18008 9.07433 6.93994 9.71195C6.70362 10.3233 6.53864 11.0209 6.49366 12.0411C6.44488 13.0689 6.43359 13.3951 6.43359 16.0019C6.43359 18.6087 6.44488 18.9349 6.48985 19.9589C6.53483 20.9791 6.69995 21.6805 6.93628 22.2882C7.18008 22.9333 7.55881 23.5108 8.04641 23.991C8.52653 24.4786 9.1079 24.8574 9.74552 25.0974C10.3569 25.3338 11.0545 25.4987 12.0748 25.5437C13.0986 25.5888 13.425 25.6 16.0318 25.6C18.6386 25.6 18.9649 25.5888 19.9888 25.5437C21.009 25.4987 21.7104 25.3338 22.3179 25.0974C23.6083 24.5985 24.6285 23.5784 25.1273 22.2882C25.3635 21.6768 25.5286 20.9791 25.5736 19.9589C25.6186 18.9349 25.6299 18.6087 25.6299 16.0019C25.6299 13.3951 25.6261 13.0689 25.5811 12.0449ZM23.8521 19.8839C23.8108 20.8216 23.6533 21.3279 23.522 21.6655C23.1994 22.5019 22.5355 23.1658 21.6991 23.4884C21.3615 23.6197 20.8515 23.7772 19.9175 23.8184C18.9048 23.8635 18.6011 23.8746 16.0393 23.8746C13.4775 23.8746 13.17 23.8635 12.1609 23.8184C11.2233 23.7772 10.7169 23.6197 10.3793 23.4884C9.96309 23.3346 9.58421 23.0908 9.27668 22.772C8.95787 22.4606 8.71407 22.0856 8.56023 21.6693C8.42895 21.3317 8.27145 20.8216 8.23028 19.8877C8.18516 18.875 8.17402 18.5712 8.17402 16.0094C8.17402 13.4476 8.18516 13.1401 8.23028 12.1312C8.27145 11.1935 8.42895 10.6871 8.56023 10.3496C8.71407 9.93319 8.95787 9.55445 9.28049 9.24677C9.59168 8.92796 9.96676 8.68416 10.3831 8.53047C10.7207 8.39919 11.2309 8.24169 12.1647 8.20038C13.1774 8.1554 13.4813 8.14412 16.0429 8.14412C18.6085 8.14412 18.9123 8.1554 19.9213 8.20038C20.859 8.24169 21.3653 8.39919 21.7029 8.53047C22.1191 8.68416 22.498 8.92796 22.8055 9.24677C23.1244 9.55811 23.3682 9.93319 23.522 10.3496C23.6533 10.6871 23.8108 11.1972 23.8521 12.1312C23.8971 13.1439 23.9083 13.4476 23.9083 16.0094C23.9083 18.5712 23.8971 18.8712 23.8521 19.8839Z" fill="white"/>
<path d="M16.0357 11.0697C13.3128 11.0697 11.1035 13.2788 11.1035 16.0019C11.1035 18.725 13.3128 20.9341 16.0357 20.9341C18.7588 20.9341 20.9679 18.725 20.9679 16.0019C20.9679 13.2788 18.7588 11.0697 16.0357 11.0697ZM16.0357 19.2013C14.2692 19.2013 12.8363 17.7686 12.8363 16.0019C12.8363 14.2353 14.2692 12.8025 16.0357 12.8025C17.8024 12.8025 19.2351 14.2353 19.2351 16.0019C19.2351 17.7686 17.8024 19.2013 16.0357 19.2013Z" fill="white"/>
<path d="M22.3143 10.8747C22.3143 11.5106 21.7987 12.0262 21.1627 12.0262C20.5268 12.0262 20.0112 11.5106 20.0112 10.8747C20.0112 10.2387 20.5268 9.72327 21.1627 9.72327C21.7987 9.72327 22.3143 10.2387 22.3143 10.8747Z" fill="white"/>
</g>
<defs>
<clipPath id="clip0_60_21">
<rect width="19.2" height="19.2" fill="white" transform="translate(6.3999 6.40002)"/>
</clipPath>
</defs>
</svg>
