<svg width="40" height="40" viewBox="0 0 40 40" fill="none" xmlns="http://www.w3.org/2000/svg">
<path d="M33.3335 13.3333H23.9802L25.8518 7.72166C26.1885 6.70833 26.0185 5.585 25.3935 4.71833C24.7685 3.85166 23.7552 3.33333 22.6868 3.33333H20.0002C19.5052 3.33333 19.0368 3.55333 18.7185 3.93333L10.8852 13.3333H6.66683C4.8285 13.3333 3.3335 14.8283 3.3335 16.6667V31.6667C3.3335 33.505 4.8285 35 6.66683 35H28.8452C29.5233 34.9977 30.1848 34.7897 30.7422 34.4035C31.2996 34.0172 31.7266 33.4708 31.9668 32.8367L36.5618 20.585C36.6316 20.3979 36.6672 20.1997 36.6668 20V16.6667C36.6668 14.8283 35.1718 13.3333 33.3335 13.3333ZM6.66683 16.6667H10.0002V31.6667H6.66683V16.6667ZM33.3335 19.6983L28.8452 31.6667H13.3335V15.6033L20.7802 6.66666H22.6902L20.0868 14.4717C20.0023 14.7222 19.9787 14.9893 20.0181 15.2507C20.0574 15.5122 20.1585 15.7605 20.3129 15.9751C20.4674 16.1896 20.6708 16.3643 20.9062 16.4846C21.1417 16.6049 21.4024 16.6673 21.6668 16.6667H33.3335V19.6983Z" fill="#1D2023"/>
</svg>
