<svg width="117" height="26" viewBox="0 0 117 26" fill="none" xmlns="http://www.w3.org/2000/svg">
<path d="M37.045 9.325C36.475 9.325 35.96 9.425 35.5 9.625C35.04 9.815 34.65 10.1 34.33 10.48C34.01 10.85 33.765 11.305 33.595 11.845C33.425 12.375 33.34 12.975 33.34 13.645C33.34 14.525 33.475 15.29 33.745 15.94C34.025 16.59 34.435 17.09 34.975 17.44C35.525 17.79 36.21 17.965 37.03 17.965C37.5 17.965 37.945 17.925 38.365 17.845C38.785 17.765 39.195 17.665 39.595 17.545V18.715C39.195 18.865 38.78 18.975 38.35 19.045C37.93 19.115 37.425 19.15 36.835 19.15C35.745 19.15 34.835 18.925 34.105 18.475C33.375 18.025 32.825 17.385 32.455 16.555C32.095 15.725 31.915 14.75 31.915 13.63C31.915 12.82 32.025 12.08 32.245 11.41C32.475 10.74 32.805 10.16 33.235 9.67C33.675 9.18 34.215 8.805 34.855 8.545C35.495 8.275 36.23 8.14 37.06 8.14C37.61 8.14 38.14 8.195 38.65 8.305C39.16 8.415 39.615 8.57 40.015 8.77L39.475 9.91C39.145 9.76 38.775 9.625 38.365 9.505C37.965 9.385 37.525 9.325 37.045 9.325ZM41.9325 19V8.29H49.9725V19H48.6375V9.475H43.2825V19H41.9325ZM59.6242 19L58.3342 15.685H54.0892L52.8142 19H51.4492L55.6342 8.245H56.8492L61.0192 19H59.6242ZM56.7292 11.245C56.6992 11.165 56.6492 11.02 56.5792 10.81C56.5092 10.6 56.4392 10.385 56.3692 10.165C56.3092 9.935 56.2592 9.76 56.2192 9.64C56.1692 9.84 56.1142 10.045 56.0542 10.255C56.0042 10.455 55.9492 10.64 55.8892 10.81C55.8392 10.98 55.7942 11.125 55.7542 11.245L54.5392 14.485H57.9292L56.7292 11.245ZM65.5258 15.565V14.395H69.1558V15.565H65.5258ZM78.1563 19.15C77.4463 19.15 76.8113 19.005 76.2513 18.715C75.7013 18.425 75.2663 17.975 74.9463 17.365C74.6363 16.755 74.4813 15.975 74.4813 15.025C74.4813 14.035 74.6463 13.23 74.9763 12.61C75.3063 11.99 75.7513 11.535 76.3113 11.245C76.8813 10.955 77.5263 10.81 78.2463 10.81C78.6563 10.81 79.0513 10.855 79.4313 10.945C79.8113 11.025 80.1213 11.125 80.3613 11.245L79.9563 12.34C79.7163 12.25 79.4363 12.165 79.1163 12.085C78.7963 12.005 78.4963 11.965 78.2163 11.965C77.6763 11.965 77.2313 12.08 76.8813 12.31C76.5313 12.54 76.2713 12.88 76.1013 13.33C75.9313 13.78 75.8463 14.34 75.8463 15.01C75.8463 15.65 75.9313 16.195 76.1013 16.645C76.2713 17.095 76.5263 17.435 76.8663 17.665C77.2063 17.895 77.6313 18.01 78.1413 18.01C78.5813 18.01 78.9663 17.965 79.2963 17.875C79.6363 17.785 79.9463 17.675 80.2263 17.545V18.715C79.9563 18.855 79.6563 18.96 79.3263 19.03C79.0063 19.11 78.6163 19.15 78.1563 19.15ZM85.1833 10.825C86.1633 10.825 86.8883 11.04 87.3583 11.47C87.8283 11.9 88.0633 12.585 88.0633 13.525V19H87.1033L86.8483 17.86H86.7883C86.5583 18.15 86.3183 18.395 86.0683 18.595C85.8283 18.785 85.5483 18.925 85.2283 19.015C84.9183 19.105 84.5383 19.15 84.0883 19.15C83.6083 19.15 83.1733 19.065 82.7833 18.895C82.4033 18.725 82.1033 18.465 81.8833 18.115C81.6633 17.755 81.5533 17.305 81.5533 16.765C81.5533 15.965 81.8683 15.35 82.4983 14.92C83.1283 14.48 84.0983 14.24 85.4083 14.2L86.7733 14.155V13.675C86.7733 13.005 86.6283 12.54 86.3383 12.28C86.0483 12.02 85.6383 11.89 85.1083 11.89C84.6883 11.89 84.2883 11.955 83.9083 12.085C83.5283 12.205 83.1733 12.345 82.8433 12.505L82.4383 11.515C82.7883 11.325 83.2033 11.165 83.6833 11.035C84.1633 10.895 84.6633 10.825 85.1833 10.825ZM85.5733 15.115C84.5733 15.155 83.8783 15.315 83.4883 15.595C83.1083 15.875 82.9183 16.27 82.9183 16.78C82.9183 17.23 83.0533 17.56 83.3233 17.77C83.6033 17.98 83.9583 18.085 84.3883 18.085C85.0683 18.085 85.6333 17.9 86.0833 17.53C86.5333 17.15 86.7583 16.57 86.7583 15.79V15.07L85.5733 15.115ZM96.6665 19H95.3315V12.055H92.9615C92.8615 13.325 92.7365 14.41 92.5865 15.31C92.4365 16.2 92.2465 16.925 92.0165 17.485C91.7865 18.045 91.5115 18.455 91.1915 18.715C90.8715 18.975 90.4965 19.105 90.0665 19.105C89.9365 19.105 89.8065 19.095 89.6765 19.075C89.5565 19.065 89.4565 19.04 89.3765 19V18.01C89.4365 18.03 89.5015 18.045 89.5715 18.055C89.6415 18.065 89.7115 18.07 89.7815 18.07C90.0015 18.07 90.2015 17.98 90.3815 17.8C90.5615 17.62 90.7215 17.345 90.8615 16.975C91.0115 16.605 91.1465 16.14 91.2665 15.58C91.3865 15.01 91.4915 14.34 91.5815 13.57C91.6715 12.8 91.7515 11.93 91.8215 10.96H96.6665V19ZM106.208 14.965C106.208 15.635 106.118 16.23 105.938 16.75C105.768 17.26 105.518 17.695 105.188 18.055C104.868 18.415 104.473 18.69 104.003 18.88C103.543 19.06 103.028 19.15 102.458 19.15C101.928 19.15 101.438 19.06 100.988 18.88C100.538 18.69 100.148 18.415 99.8184 18.055C99.4884 17.695 99.2284 17.26 99.0384 16.75C98.8584 16.23 98.7684 15.635 98.7684 14.965C98.7684 14.075 98.9184 13.325 99.2184 12.715C99.5184 12.095 99.9484 11.625 100.508 11.305C101.068 10.975 101.733 10.81 102.503 10.81C103.233 10.81 103.873 10.975 104.423 11.305C104.983 11.625 105.418 12.095 105.728 12.715C106.048 13.325 106.208 14.075 106.208 14.965ZM100.133 14.965C100.133 15.595 100.213 16.145 100.373 16.615C100.543 17.075 100.803 17.43 101.153 17.68C101.503 17.93 101.948 18.055 102.488 18.055C103.028 18.055 103.473 17.93 103.823 17.68C104.173 17.43 104.428 17.075 104.588 16.615C104.758 16.145 104.843 15.595 104.843 14.965C104.843 14.325 104.758 13.78 104.588 13.33C104.418 12.88 104.158 12.535 103.808 12.295C103.468 12.045 103.023 11.92 102.473 11.92C101.653 11.92 101.058 12.19 100.688 12.73C100.318 13.27 100.133 14.015 100.133 14.965ZM109.62 10.96V14.305H113.985V10.96H115.305V19H113.985V15.415H109.62V19H108.3V10.96H109.62Z" fill="#1D2023" fill-opacity="0.5"/>
<g clip-path="url(#clip0_34_2496)">
<path d="M13.0002 4.85327C12.1817 4.85327 11.3816 5.09598 10.701 5.55071C10.0205 6.00543 9.49005 6.65175 9.17683 7.40793C8.86361 8.16411 8.78166 8.9962 8.94134 9.79895C9.10101 10.6017 9.49515 11.3391 10.0739 11.9178C10.6527 12.4966 11.39 12.8907 12.1928 13.0504C12.9956 13.2101 13.8276 13.1281 14.5838 12.8149C15.34 12.5017 15.9863 11.9713 16.4411 11.2907C16.8958 10.6102 17.1385 9.81009 17.1385 8.9916C17.1385 7.89405 16.7025 6.84145 15.9264 6.06536C15.1503 5.28927 14.0977 4.85327 13.0002 4.85327V4.85327ZM13.0002 11.6855C12.4674 11.6855 11.9465 11.5275 11.5035 11.2315C11.0605 10.9355 10.7152 10.5148 10.5113 10.0225C10.3074 9.53027 10.2541 8.98862 10.358 8.46605C10.462 7.94349 10.7185 7.46348 11.0953 7.08674C11.472 6.70999 11.952 6.45342 12.4746 6.34948C12.9972 6.24553 13.5388 6.29888 14.0311 6.50278C14.5233 6.70667 14.944 7.05195 15.24 7.49496C15.536 7.93797 15.694 8.4588 15.694 8.9916C15.6921 9.70482 15.4075 10.3882 14.9025 10.8918C14.3975 11.3954 13.7134 11.6783 13.0002 11.6783V11.6855Z" fill="#1D2023" fill-opacity="0.5"/>
<path d="M13 1.44434C10.7504 1.44621 8.59295 2.33822 6.99888 3.92553C5.40481 5.51283 4.50363 7.66645 4.49219 9.916C4.49219 13.2888 6.38441 16.1127 7.77108 18.171L8.02385 18.5466C9.4035 20.5461 10.8835 22.4745 12.4583 24.3243L13.0072 24.9671L13.5561 24.3243C15.1306 22.4744 16.6107 20.546 17.9905 18.5466L18.2433 18.1638C19.6227 16.1054 21.515 13.2888 21.515 9.916C21.5035 7.6652 20.6013 5.51049 19.0057 3.92298C17.4101 2.33547 15.2508 1.44431 13 1.44434V1.44434ZM17.0372 17.3332L16.7772 17.716C15.535 19.5793 13.8883 21.6666 13 22.6993C12.1477 21.6666 10.465 19.5793 9.22274 17.716L8.96997 17.3332C7.69163 15.4266 5.93663 12.8193 5.93663 9.88711C5.93663 8.95954 6.11933 8.04106 6.4743 7.18409C6.82926 6.32713 7.34954 5.54847 8.00543 4.89258C8.66133 4.23669 9.43998 3.71641 10.2969 3.36144C11.1539 3.00648 12.0724 2.82378 13 2.82378C13.9275 2.82378 14.846 3.00648 15.703 3.36144C16.5599 3.71641 17.3386 4.23669 17.9945 4.89258C18.6504 5.54847 19.1707 6.32713 19.5256 7.18409C19.8806 8.04106 20.0633 8.95954 20.0633 9.88711C20.0633 12.8482 18.3155 15.4554 17.0372 17.3332V17.3332Z" fill="#1D2023" fill-opacity="0.5"/>
</g>
<defs>
<clipPath id="clip0_34_2496">
<rect width="26" height="26" fill="white"/>
</clipPath>
</defs>
</svg>
