<svg width="38" height="51" viewBox="0 0 38 51" fill="none" xmlns="http://www.w3.org/2000/svg">
<path d="M17.0474 49.971C2.66891 28.9894 0 26.8361 0 19.125C0 8.56252 8.50656 0 19 0C29.4934 0 38 8.56252 38 19.125C38 26.8361 35.3311 28.9894 20.9526 49.971C20.0091 51.3431 17.9908 51.343 17.0474 49.971ZM19 27.0938C23.3723 27.0938 26.9167 23.526 26.9167 19.125C26.9167 14.724 23.3723 11.1562 19 11.1562C14.6277 11.1562 11.0833 14.724 11.0833 19.125C11.0833 23.526 14.6277 27.0938 19 27.0938Z" fill="#E30613"/>
</svg>
