<svg width="40" height="40" viewBox="0 0 40 40" fill="none" xmlns="http://www.w3.org/2000/svg">
<path d="M31.5117 10.7333L18.7533 23.4917C19.1317 24.0333 19.4533 24.6183 19.7117 25.2383L22.895 32.9033L31.5117 10.7317V10.7333ZM16.5083 21.2467L29.2683 8.48667L7.09667 17.1033L14.7617 20.2883C15.3769 20.5435 15.9626 20.8648 16.5083 21.2467ZM35.8717 8.14334L25.8267 33.9867C25.1933 35.62 23.365 36.4583 21.745 35.86C21.3504 35.7142 20.9902 35.4883 20.687 35.1966C20.3839 34.9049 20.1443 34.5537 19.9833 34.165L16.8 26.5C16.1806 25.0063 14.9937 23.8194 13.5 23.2L5.83334 20.0167C4.24334 19.355 3.51667 17.5167 4.21334 15.9067C4.38416 15.5133 4.63116 15.1576 4.94009 14.8601C5.24902 14.5626 5.61378 14.3292 6.01334 14.1733L31.8567 4.125C32.4182 3.89871 33.0339 3.84255 33.6271 3.96352C34.2204 4.08449 34.7649 4.37724 35.193 4.80534C35.6211 5.23344 35.9139 5.77799 36.0348 6.37121C36.1558 6.96443 36.0996 7.58012 35.8733 8.14167L35.8717 8.14334Z" fill="#1D2023"/>
</svg>
