<svg width="40" height="40" viewBox="0 0 40 40" fill="none" xmlns="http://www.w3.org/2000/svg">
<path fill-rule="evenodd" clip-rule="evenodd" d="M14.9998 36.6667C14.9998 37.1087 14.8242 37.5326 14.5117 37.8452C14.1991 38.1577 13.7752 38.3333 13.3332 38.3333C12.8911 38.3333 12.4672 38.1577 12.1547 37.8452C11.8421 37.5326 11.6665 37.1087 11.6665 36.6667C11.6665 36.2246 11.8421 35.8007 12.1547 35.4882C12.4672 35.1756 12.8911 35 13.3332 35C13.7752 35 14.1991 35.1756 14.5117 35.4882C14.8242 35.8007 14.9998 36.2246 14.9998 36.6667ZM21.6665 36.6667C21.6665 37.1087 21.4909 37.5326 21.1783 37.8452C20.8658 38.1577 20.4419 38.3333 19.9998 38.3333C19.5578 38.3333 19.1339 38.1577 18.8213 37.8452C18.5088 37.5326 18.3332 37.1087 18.3332 36.6667C18.3332 36.2246 18.5088 35.8007 18.8213 35.4882C19.1339 35.1756 19.5578 35 19.9998 35C20.4419 35 20.8658 35.1756 21.1783 35.4882C21.4909 35.8007 21.6665 36.2246 21.6665 36.6667ZM26.6665 38.3333C27.1085 38.3333 27.5325 38.1577 27.845 37.8452C28.1576 37.5326 28.3332 37.1087 28.3332 36.6667C28.3332 36.2246 28.1576 35.8007 27.845 35.4882C27.5325 35.1756 27.1085 35 26.6665 35C26.2245 35 25.8006 35.1756 25.488 35.4882C25.1754 35.8007 24.9998 36.2246 24.9998 36.6667C24.9998 37.1087 25.1754 37.5326 25.488 37.8452C25.8006 38.1577 26.2245 38.3333 26.6665 38.3333Z" fill="#1D2023"/>
<path fill-rule="evenodd" clip-rule="evenodd" d="M14.9998 3.33334C14.9998 3.77537 14.8242 4.19929 14.5117 4.51185C14.1991 4.82441 13.7752 5.00001 13.3332 5.00001C12.8911 5.00001 12.4672 4.82441 12.1547 4.51185C11.8421 4.19929 11.6665 3.77537 11.6665 3.33334C11.6665 2.89131 11.8421 2.46739 12.1547 2.15483C12.4672 1.84227 12.8911 1.66667 13.3332 1.66667C13.7752 1.66667 14.1991 1.84227 14.5117 2.15483C14.8242 2.46739 14.9998 2.89131 14.9998 3.33334ZM21.6665 3.33334C21.6665 3.77537 21.4909 4.19929 21.1783 4.51185C20.8658 4.82441 20.4419 5.00001 19.9998 5.00001C19.5578 5.00001 19.1339 4.82441 18.8213 4.51185C18.5088 4.19929 18.3332 3.77537 18.3332 3.33334C18.3332 2.89131 18.5088 2.46739 18.8213 2.15483C19.1339 1.84227 19.5578 1.66667 19.9998 1.66667C20.4419 1.66667 20.8658 1.84227 21.1783 2.15483C21.4909 2.46739 21.6665 2.89131 21.6665 3.33334ZM26.6665 5.00001C27.1085 5.00001 27.5325 4.82441 27.845 4.51185C28.1576 4.19929 28.3332 3.77537 28.3332 3.33334C28.3332 2.89131 28.1576 2.46739 27.845 2.15483C27.5325 1.84227 27.1085 1.66667 26.6665 1.66667C26.2245 1.66667 25.8006 1.84227 25.488 2.15483C25.1754 2.46739 24.9998 2.89131 24.9998 3.33334C24.9998 3.77537 25.1754 4.19929 25.488 4.51185C25.8006 4.82441 26.2245 5.00001 26.6665 5.00001ZM14.9998 36.6667C14.9998 37.1087 14.8242 37.5326 14.5117 37.8452C14.1991 38.1577 13.7752 38.3333 13.3332 38.3333C12.8911 38.3333 12.4672 38.1577 12.1547 37.8452C11.8421 37.5326 11.6665 37.1087 11.6665 36.6667C11.6665 36.2246 11.8421 35.8007 12.1547 35.4882C12.4672 35.1756 12.8911 35 13.3332 35C13.7752 35 14.1991 35.1756 14.5117 35.4882C14.8242 35.8007 14.9998 36.2246 14.9998 36.6667ZM21.6665 36.6667C21.6665 37.1087 21.4909 37.5326 21.1783 37.8452C20.8658 38.1577 20.4419 38.3333 19.9998 38.3333C19.5578 38.3333 19.1339 38.1577 18.8213 37.8452C18.5088 37.5326 18.3332 37.1087 18.3332 36.6667C18.3332 36.2246 18.5088 35.8007 18.8213 35.4882C19.1339 35.1756 19.5578 35 19.9998 35C20.4419 35 20.8658 35.1756 21.1783 35.4882C21.4909 35.8007 21.6665 36.2246 21.6665 36.6667ZM26.6665 38.3333C27.1085 38.3333 27.5325 38.1577 27.845 37.8452C28.1576 37.5326 28.3332 37.1087 28.3332 36.6667C28.3332 36.2246 28.1576 35.8007 27.845 35.4882C27.5325 35.1756 27.1085 35 26.6665 35C26.2245 35 25.8006 35.1756 25.488 35.4882C25.1754 35.8007 24.9998 36.2246 24.9998 36.6667C24.9998 37.1087 25.1754 37.5326 25.488 37.8452C25.8006 38.1577 26.2245 38.3333 26.6665 38.3333ZM38.3332 26.6667C38.3332 26.2246 38.1576 25.8007 37.845 25.4882C37.5325 25.1756 37.1085 25 36.6665 25C36.2245 25 35.8006 25.1756 35.488 25.4882C35.1754 25.8007 34.9998 26.2246 34.9998 26.6667C34.9998 27.1087 35.1754 27.5326 35.488 27.8452C35.8006 28.1577 36.2245 28.3333 36.6665 28.3333C37.1085 28.3333 37.5325 28.1577 37.845 27.8452C38.1576 27.5326 38.3332 27.1087 38.3332 26.6667ZM38.3332 20C38.3332 19.558 38.1576 19.1341 37.845 18.8215C37.5325 18.5089 37.1085 18.3333 36.6665 18.3333C36.2245 18.3333 35.8006 18.5089 35.488 18.8215C35.1754 19.1341 34.9998 19.558 34.9998 20C34.9998 20.442 35.1754 20.866 35.488 21.1785C35.8006 21.4911 36.2245 21.6667 36.6665 21.6667C37.1085 21.6667 37.5325 21.4911 37.845 21.1785C38.1576 20.866 38.3332 20.442 38.3332 20ZM36.6665 11.6667C37.1085 11.6667 37.5325 11.8423 37.845 12.1548C38.1576 12.4674 38.3332 12.8913 38.3332 13.3333C38.3332 13.7754 38.1576 14.1993 37.845 14.5119C37.5325 14.8244 37.1085 15 36.6665 15C36.2245 15 35.8006 14.8244 35.488 14.5119C35.1754 14.1993 34.9998 13.7754 34.9998 13.3333C34.9998 12.8913 35.1754 12.4674 35.488 12.1548C35.8006 11.8423 36.2245 11.6667 36.6665 11.6667ZM3.33317 25C3.7752 25 4.19912 25.1756 4.51168 25.4882C4.82424 25.8007 4.99984 26.2246 4.99984 26.6667C4.99984 27.1087 4.82424 27.5326 4.51168 27.8452C4.19912 28.1577 3.7752 28.3333 3.33317 28.3333C2.89114 28.3333 2.46722 28.1577 2.15466 27.8452C1.8421 27.5326 1.6665 27.1087 1.6665 26.6667C1.6665 26.2246 1.8421 25.8007 2.15466 25.4882C2.46722 25.1756 2.89114 25 3.33317 25ZM3.33317 18.3333C3.7752 18.3333 4.19912 18.5089 4.51168 18.8215C4.82424 19.1341 4.99984 19.558 4.99984 20C4.99984 20.442 4.82424 20.866 4.51168 21.1785C4.19912 21.4911 3.7752 21.6667 3.33317 21.6667C2.89114 21.6667 2.46722 21.4911 2.15466 21.1785C1.8421 20.866 1.6665 20.442 1.6665 20C1.6665 19.558 1.8421 19.1341 2.15466 18.8215C2.46722 18.5089 2.89114 18.3333 3.33317 18.3333ZM4.99984 13.3333C4.99984 12.8913 4.82424 12.4674 4.51168 12.1548C4.19912 11.8423 3.7752 11.6667 3.33317 11.6667C2.89114 11.6667 2.46722 11.8423 2.15466 12.1548C1.8421 12.4674 1.6665 12.8913 1.6665 13.3333C1.6665 13.7754 1.8421 14.1993 2.15466 14.5119C2.46722 14.8244 2.89114 15 3.33317 15C3.7752 15 4.19912 14.8244 4.51168 14.5119C4.82424 14.1993 4.99984 13.7754 4.99984 13.3333ZM28.3332 10H11.6665C11.2245 10 10.8006 10.1756 10.488 10.4882C10.1754 10.8007 9.99984 11.2246 9.99984 11.6667V28.3333C9.99984 28.7754 10.1754 29.1993 10.488 29.5119C10.8006 29.8244 11.2245 30 11.6665 30H28.3332C28.7752 30 29.1991 29.8244 29.5117 29.5119C29.8242 29.1993 29.9998 28.7754 29.9998 28.3333V11.6667C29.9998 11.2246 29.8242 10.8007 29.5117 10.4882C29.1991 10.1756 28.7752 10 28.3332 10ZM11.6665 6.66667C10.3404 6.66667 9.06865 7.19346 8.13097 8.13114C7.19329 9.06882 6.6665 10.3406 6.6665 11.6667V28.3333C6.6665 29.6594 7.19329 30.9312 8.13097 31.8689C9.06865 32.8066 10.3404 33.3333 11.6665 33.3333H28.3332C29.6593 33.3333 30.931 32.8066 31.8687 31.8689C32.8064 30.9312 33.3332 29.6594 33.3332 28.3333V11.6667C33.3332 10.3406 32.8064 9.06882 31.8687 8.13114C30.931 7.19346 29.6593 6.66667 28.3332 6.66667H11.6665ZM23.3332 16.6667H16.6665V23.3333H23.3332V16.6667ZM13.3332 13.3333V26.6667H26.6665V13.3333H13.3332Z" fill="#1D2023"/>
</svg>
