<svg width="20" height="20" viewBox="0 0 27 27" fill="none" xmlns="http://www.w3.org/2000/svg">
<path d="M21.9375 24.4688H21.794C5.21436 23.5153 2.86029 9.52594 2.53123 5.25656C2.50472 4.92461 2.54396 4.5907 2.64672 4.27394C2.74948 3.95719 2.91372 3.66382 3.13005 3.41065C3.34638 3.15748 3.61054 2.94949 3.9074 2.79858C4.20425 2.64768 4.52796 2.55683 4.85998 2.53125H9.50904C9.84701 2.53092 10.1773 2.63209 10.4571 2.82164C10.7369 3.01119 10.9534 3.28039 11.0784 3.59438L12.3609 6.75C12.4844 7.05674 12.515 7.393 12.449 7.71701C12.383 8.04102 12.2233 8.3385 11.9897 8.5725L10.1925 10.3866C10.4732 11.9819 11.2372 13.4525 12.3811 14.5994C13.525 15.7463 14.9935 16.5141 16.5881 16.7991L18.419 14.985C18.6566 14.7539 18.9568 14.5979 19.2824 14.5364C19.608 14.4749 19.9445 14.5106 20.25 14.6391L23.4309 15.9131C23.7402 16.0421 24.004 16.2603 24.1888 16.5398C24.3737 16.8192 24.4711 17.1474 24.4687 17.4825V21.9375C24.4687 22.6088 24.202 23.2527 23.7273 23.7274C23.2526 24.2021 22.6088 24.4687 21.9375 24.4688ZM5.06248 4.21875C4.8387 4.21875 4.62409 4.30765 4.46586 4.46588C4.30762 4.62411 4.21873 4.83872 4.21873 5.0625V5.13C4.60685 10.125 7.09592 21.9375 21.8869 22.7812C21.9977 22.7881 22.1088 22.773 22.2138 22.7368C22.3188 22.7006 22.4156 22.6441 22.4987 22.5704C22.5818 22.4967 22.6495 22.4073 22.698 22.3074C22.7465 22.2075 22.7748 22.099 22.7812 21.9881V17.4825L19.6003 16.2084L17.1787 18.6131L16.7737 18.5625C9.4331 17.6428 8.43748 10.3022 8.43748 10.2263L8.38685 9.82125L10.7831 7.39969L9.51748 4.21875H5.06248Z" fill="#1D2023"/>
</svg>
