<svg width="32" height="32" viewBox="0 0 32 32" fill="none" xmlns="http://www.w3.org/2000/svg">
<g clip-path="url(#clip0_91_212)">
<circle cx="16" cy="16" r="16" fill="#BBC1C7"/>
<path d="M15.76 6C14.1782 6 10.2653 6.15936 8.18401 8.07171C6.68546 9.42629 6.1027 11.498 6.01945 13.9681C5.85294 17.8725 6.76872 20.3426 8.26726 21.6175C8.60027 21.8566 9.43279 22.494 11.0146 22.9721V24.9641C11.0146 24.9641 11.0146 25.761 11.5141 25.9203C11.5974 25.9203 11.6806 26 11.7639 26C12.2634 26 12.6796 25.4422 13.2624 24.8845C13.7619 24.3267 14.1782 23.9283 14.4279 23.5299H16.2595C17.8413 23.5299 21.7541 23.3705 23.8354 21.4582C25.334 20.0239 25.9167 17.9522 25.9167 15.3227C26 14.9243 26 14.4462 26 13.9681C25.9167 11.0199 25.001 9.02789 23.7522 7.91235C23.2527 7.51394 21.0881 6 16.426 6H15.76V6ZM15.5935 7.51394H16.3427C20.7551 7.51394 22.4202 8.86853 22.5867 9.02789C23.5857 9.8247 24.1684 11.5777 24.2517 13.8884V14.2072C24.335 14.6853 24.335 15.0837 24.335 15.3227C24.2517 17.7131 23.7522 19.3068 22.7532 20.3426C21.0049 21.8566 17.3418 21.9363 16.3427 21.9363H14.7609L13.4289 23.3705L12.5964 24.247L12.4299 24.4861C12.2634 24.6454 12.0136 24.9641 11.8471 25.0438V21.4582C10.1821 21.0598 9.51604 20.502 9.34954 20.3426C8.18401 19.3865 7.51799 17.0757 7.68449 13.9681V13.1713C7.851 11.259 8.35051 9.98406 9.18303 9.10757C10.9313 7.59363 14.5944 7.51394 15.5935 7.51394V7.51394ZM15.5102 9.26693C15.0939 9.26693 15.0939 9.8247 15.5102 9.8247C18.5905 9.8247 21.2546 11.8167 21.2546 15.5618C21.2546 15.9602 21.8374 15.9602 21.8374 15.5618C21.8374 11.498 19.0068 9.18725 15.5102 9.26693V9.26693ZM12.2109 10.004C12.0223 9.98235 11.8323 10.0321 11.6814 10.1426C10.8489 10.541 10.0156 11.3394 10.2653 12.2159C10.2653 12.2159 10.4318 12.9323 11.3476 14.4462C11.8471 15.1633 12.2634 15.8008 12.6796 16.2789C13.0959 16.8367 13.7619 17.4741 14.4279 17.9522C15.76 18.988 17.8413 20.0239 18.757 20.2629C19.5896 20.502 20.5053 19.7052 20.9216 18.9084C21.0881 18.5896 21.0049 18.1912 20.6719 17.9522C20.1723 17.4741 19.3398 16.9163 18.757 16.5976C18.3408 16.3586 17.8413 16.5179 17.6748 16.757L17.2585 17.2351C17.092 17.4741 16.6757 17.4741 16.6757 17.4741C13.9284 16.757 13.1791 14.0478 13.1791 14.0478C13.1791 14.0478 13.1791 13.7291 13.4289 13.49L13.9284 13.0916C14.1782 12.9323 14.3447 12.4542 14.0949 12.0558C13.9284 11.8167 13.6787 11.3386 13.4289 11.0996C13.1791 10.7809 12.6796 10.2231 12.6796 10.2231C12.5533 10.1021 12.3883 10.0249 12.2109 10.004V10.004ZM16.093 10.8606C15.6767 10.7809 15.5935 11.4183 16.0097 11.4183C18.3408 11.5777 19.6728 13.0916 19.5896 15.004C19.5063 15.4024 20.1723 15.4024 20.1723 15.004C20.2556 12.7729 18.757 10.9402 16.093 10.8606V10.8606ZM16.3427 12.3745C15.9265 12.2948 15.9265 12.9323 16.3427 12.9323C17.3418 12.9323 17.8413 13.49 17.8413 14.4462C17.9245 14.8446 18.5073 14.8446 18.5073 14.4462C18.424 13.1713 17.6748 12.3745 16.3427 12.3745Z" fill="white"/>
</g>
<defs>
<clipPath id="clip0_91_212">
<rect width="32" height="32" fill="white"/>
</clipPath>
</defs>
</svg>
