<svg width="32" height="32" viewBox="0 0 32 32" fill="none" xmlns="http://www.w3.org/2000/svg">
<rect width="32" height="32" rx="16" fill="#BBC1C7"/>
<g clip-path="url(#clip0_60_27)">
<path d="M25.4218 20.8726C25.3681 20.7826 25.0356 20.06 23.4354 18.5749C21.7603 17.0198 21.9853 17.2723 24.003 14.5834C25.2318 12.9457 25.7231 11.9457 25.5693 11.5181C25.4231 11.1106 24.5193 11.2181 24.5193 11.2181L21.514 11.2356C21.514 11.2356 21.2915 11.2056 21.1253 11.3044C20.964 11.4019 20.8603 11.6269 20.8603 11.6269C20.8603 11.6269 20.384 12.8945 19.7489 13.9721C18.4101 16.246 17.8738 16.366 17.655 16.2247C17.1462 15.896 17.2737 14.9021 17.2737 14.1971C17.2737 11.9932 17.6075 11.0743 16.6224 10.8368C16.2949 10.7581 16.0549 10.7056 15.2186 10.6968C14.146 10.6856 13.2372 10.7006 12.7234 10.9518C12.3809 11.1194 12.1171 11.4931 12.2784 11.5144C12.4771 11.5406 12.9272 11.6356 13.1659 11.9607C13.4747 12.3794 13.4635 13.322 13.4635 13.322C13.4635 13.322 13.641 15.916 13.0497 16.2385C12.6434 16.4597 12.0871 16.0085 10.8933 13.9446C10.282 12.8882 9.81944 11.7194 9.81944 11.7194C9.81944 11.7194 9.73068 11.5019 9.57192 11.3856C9.3794 11.2444 9.10939 11.1994 9.10939 11.1994L6.25167 11.2169C6.25167 11.2169 5.82289 11.2294 5.66538 11.4156C5.52537 11.5819 5.65413 11.9244 5.65413 11.9244C5.65413 11.9244 7.8918 17.1585 10.4245 19.7975C12.7484 22.2164 15.3861 22.0577 15.3861 22.0577H16.5812C16.5812 22.0577 16.9425 22.0177 17.1262 21.8189C17.2962 21.6364 17.29 21.2939 17.29 21.2939C17.29 21.2939 17.2662 19.69 18.0113 19.4537C18.7451 19.2212 19.6877 21.0038 20.6865 21.6901C21.4415 22.2089 22.0153 22.0952 22.0153 22.0952L24.6868 22.0577C24.6868 22.0577 26.0844 21.9714 25.4218 20.8726Z" fill="white"/>
</g>
<defs>
<clipPath id="clip0_60_27">
<rect width="20" height="20" fill="white" transform="translate(5.6001 6.40002)"/>
</clipPath>
</defs>
</svg>
