<svg width="32" height="32" viewBox="0 0 32 32" fill="none" xmlns="http://www.w3.org/2000/svg">
<rect width="32" height="32" rx="16" fill="#BBC1C7"/>
<g clip-path="url(#clip0_21_1129)">
<path d="M25.5811 12.0448C25.5361 11.0246 25.3711 10.3232 25.1348 9.71549C24.891 9.07039 24.5159 8.49284 24.0245 8.01272C23.5444 7.52512 22.963 7.14624 22.3254 6.90625C21.7142 6.66993 21.0165 6.50495 19.9963 6.45997C18.9685 6.41118 18.6422 6.3999 16.0355 6.3999C13.4287 6.3999 13.1024 6.41118 12.0784 6.45616C11.0583 6.50114 10.3569 6.66626 9.74933 6.90244C9.10409 7.14624 8.52653 7.52131 8.04641 8.01272C7.55881 8.49284 7.18008 9.0742 6.93994 9.71183C6.70362 10.3232 6.53864 11.0208 6.49366 12.0409C6.44488 13.0687 6.43359 13.395 6.43359 16.0018C6.43359 18.6085 6.44488 18.9348 6.48985 19.9588C6.53483 20.979 6.69995 21.6803 6.93628 22.2881C7.18008 22.9332 7.55881 23.5107 8.04641 23.9908C8.52653 24.4784 9.1079 24.8573 9.74552 25.0973C10.3569 25.3336 11.0545 25.4986 12.0748 25.5436C13.0986 25.5887 13.425 25.5998 16.0318 25.5998C18.6386 25.5998 18.9649 25.5887 19.9888 25.5436C21.009 25.4986 21.7104 25.3336 22.3179 25.0973C23.6083 24.5984 24.6285 23.5783 25.1273 22.2881C25.3635 21.6767 25.5286 20.979 25.5736 19.9588C25.6186 18.9348 25.6299 18.6085 25.6299 16.0018C25.6299 13.395 25.6261 13.0687 25.5811 12.0448ZM23.8521 19.8838C23.8108 20.8215 23.6533 21.3278 23.522 21.6654C23.1994 22.5018 22.5355 23.1657 21.6991 23.4883C21.3615 23.6196 20.8515 23.7771 19.9175 23.8182C18.9048 23.8634 18.6011 23.8745 16.0393 23.8745C13.4775 23.8745 13.17 23.8634 12.1609 23.8182C11.2233 23.7771 10.7169 23.6196 10.3793 23.4883C9.96309 23.3345 9.58421 23.0907 9.27668 22.7718C8.95787 22.4605 8.71407 22.0854 8.56023 21.6692C8.42895 21.3316 8.27145 20.8215 8.23028 19.8876C8.18516 18.8749 8.17402 18.571 8.17402 16.0092C8.17402 13.4475 8.18516 13.1399 8.23028 12.1311C8.27145 11.1934 8.42895 10.687 8.56023 10.3495C8.71407 9.93306 8.95787 9.55433 9.28049 9.24665C9.59168 8.92784 9.96676 8.68404 10.3831 8.53035C10.7207 8.39907 11.2309 8.24157 12.1647 8.20025C13.1774 8.15527 13.4813 8.14399 16.0429 8.14399C18.6085 8.14399 18.9123 8.15527 19.9213 8.20025C20.859 8.24157 21.3653 8.39907 21.7029 8.53035C22.1191 8.68404 22.498 8.92784 22.8055 9.24665C23.1244 9.55799 23.3682 9.93306 23.522 10.3495C23.6533 10.687 23.8108 11.197 23.8521 12.1311C23.8971 13.1437 23.9083 13.4475 23.9083 16.0092C23.9083 18.571 23.8971 18.8711 23.8521 19.8838Z" fill="white"/>
<path d="M16.0355 11.0696C13.3125 11.0696 11.1033 13.2787 11.1033 16.0018C11.1033 18.7249 13.3125 20.934 16.0355 20.934C18.7586 20.934 20.9677 18.7249 20.9677 16.0018C20.9677 13.2787 18.7586 11.0696 16.0355 11.0696ZM16.0355 19.2012C14.269 19.2012 12.8361 17.7684 12.8361 16.0018C12.8361 14.2351 14.269 12.8024 16.0355 12.8024C17.8021 12.8024 19.2349 14.2351 19.2349 16.0018C19.2349 17.7684 17.8021 19.2012 16.0355 19.2012V19.2012Z" fill="white"/>
<path d="M22.3143 10.8746C22.3143 11.5105 21.7987 12.026 21.1627 12.026C20.5268 12.026 20.0112 11.5105 20.0112 10.8746C20.0112 10.2386 20.5268 9.72314 21.1627 9.72314C21.7987 9.72314 22.3143 10.2386 22.3143 10.8746V10.8746Z" fill="white"/>
</g>
<defs>
<clipPath id="clip0_21_1129">
<rect width="19.2" height="19.2" fill="white" transform="translate(6.3999 6.3999)"/>
</clipPath>
</defs>
</svg>
