<svg width="23" height="23" viewBox="0 0 23 23" fill="none" xmlns="http://www.w3.org/2000/svg">
<path d="M19.9377 22.4688H19.7943C3.2146 21.5153 0.860537 7.52594 0.531474 3.25656C0.504959 2.92461 0.544205 2.5907 0.646962 2.27394C0.749719 1.95719 0.913968 1.66382 1.1303 1.41065C1.34663 1.15748 1.61079 0.949487 1.90764 0.798583C2.20449 0.64768 2.5282 0.556834 2.86022 0.531251H7.50929C7.84726 0.530924 8.17754 0.632087 8.45735 0.821637C8.73716 1.01119 8.95361 1.28039 9.07866 1.59438L10.3612 4.75C10.4846 5.05674 10.5153 5.393 10.4493 5.71701C10.3833 6.04103 10.2235 6.3385 9.98991 6.5725L8.19272 8.38656C8.47345 9.98188 9.23744 11.4525 10.3813 12.5994C11.5252 13.7463 12.9938 14.5141 14.5883 14.7991L16.4193 12.985C16.6568 12.7539 16.9571 12.5979 17.2827 12.5364C17.6083 12.4749 17.9448 12.5106 18.2502 12.6391L21.4312 13.9131C21.7404 14.0421 22.0043 14.2603 22.1891 14.5398C22.3739 14.8192 22.4713 15.1474 22.469 15.4825V19.9375C22.469 20.6088 22.2023 21.2527 21.7276 21.7274C21.2529 22.2021 20.6091 22.4688 19.9377 22.4688ZM3.06272 2.21875C2.83895 2.21875 2.62434 2.30765 2.4661 2.46588C2.30787 2.62411 2.21897 2.83872 2.21897 3.0625V3.13C2.6071 8.125 5.09616 19.9375 19.8871 20.7812C19.9979 20.7881 20.1091 20.773 20.2141 20.7368C20.3191 20.7006 20.4159 20.6441 20.499 20.5704C20.5821 20.4967 20.6498 20.4073 20.6983 20.3074C20.7467 20.2075 20.775 20.099 20.7815 19.9881V15.4825L17.6005 14.2084L15.179 16.6131L14.774 16.5625C7.43335 15.6428 6.43772 8.30219 6.43772 8.22625L6.3871 7.82125L8.78335 5.39969L7.51772 2.21875H3.06272Z" fill="#1D2023"/>
</svg>
