<svg width="32" height="32" viewBox="0 0 32 32" fill="none" xmlns="http://www.w3.org/2000/svg">
<g clip-path="url(#clip0_91_200)">
<circle cx="16" cy="16" r="16" fill="#BBC1C7"/>
<path d="M20.58 17.9856C20.3294 17.8588 19.1087 17.2631 18.8806 17.1781C18.6525 17.0969 18.4869 17.0544 18.3206 17.305C18.1581 17.5494 17.6794 18.1088 17.5331 18.2719C17.3869 18.435 17.2431 18.4475 16.9963 18.3369C16.7456 18.21 15.945 17.9494 14.9944 17.0969C14.2519 16.4362 13.7575 15.6225 13.6106 15.3719C13.4644 15.1244 13.5944 14.9844 13.7181 14.8606C13.8319 14.7469 13.9688 14.5744 14.0956 14.4244C14.2162 14.2744 14.255 14.1737 14.3431 14.0112C14.4244 13.8356 14.3825 13.6988 14.3206 13.575C14.2587 13.4512 13.7606 12.2244 13.5525 11.7356C13.3537 11.2506 13.1456 11.3125 12.9925 11.3125C12.8494 11.2994 12.6831 11.2994 12.5175 11.2994C12.3519 11.2994 12.0812 11.3612 11.8531 11.5988C11.625 11.8494 10.9806 12.4481 10.9806 13.6594C10.9806 14.8738 11.8725 16.0487 11.9963 16.2244C12.1231 16.3869 13.7506 18.8869 16.2475 19.9612C16.8431 20.2119 17.3056 20.3619 17.6669 20.4856C18.2625 20.6744 18.8063 20.6481 19.2356 20.5862C19.7106 20.5081 20.7069 19.9837 20.9156 19.3981C21.1275 18.8088 21.1275 18.3206 21.0656 18.21C21.0037 18.0962 20.8412 18.0344 20.5906 17.9237L20.58 17.9856ZM16.0519 24.125H16.0387C14.5606 24.125 13.0994 23.7244 11.8231 22.9756L11.5238 22.7969L8.39875 23.6106L9.23875 20.57L9.03688 20.2575C8.21154 18.9452 7.77369 17.4265 7.77375 15.8763C7.77375 11.3387 11.4881 7.6375 16.0581 7.6375C18.2719 7.6375 20.3488 8.5 21.9113 10.0625C22.682 10.8241 23.2935 11.7316 23.7098 12.732C24.1262 13.7325 24.3391 14.8058 24.3363 15.8894C24.33 20.4237 20.6187 24.125 16.055 24.125H16.0519ZM23.0994 8.87437C21.1981 7.03812 18.6981 6 16.0387 6C10.5537 6 6.0875 10.4469 6.08438 15.9119C6.08438 17.6569 6.54 19.3594 7.4125 20.8662L6 26L11.28 24.6231C12.7427 25.4117 14.3776 25.8265 16.0394 25.8306H16.0425C21.5306 25.8306 25.9969 21.3837 26 15.915C26 13.2687 24.9681 10.7781 23.0869 8.90625L23.0994 8.87437Z" fill="white"/>
</g>
<defs>
<clipPath id="clip0_91_200">
<rect width="32" height="32" fill="white"/>
</clipPath>
</defs>
</svg>
