<svg width="40" height="40" viewBox="0 0 40 40" fill="none" xmlns="http://www.w3.org/2000/svg">
<rect width="40" height="40" rx="20" fill="#BBC1C7"/>
<path d="M19.9864 20.341C17.1614 20.341 14.8134 17.995 14.8134 15.219C14.8134 12.347 17.1614 10 19.9874 10C22.9094 10 25.1604 12.346 25.1604 15.219C25.1554 16.5821 24.6093 17.8873 23.6423 18.848C22.6753 19.8086 21.3664 20.346 20.0034 20.342L19.9864 20.341ZM19.9864 13.017C18.7904 13.017 17.8804 14.022 17.8804 15.22C17.8804 16.416 18.7904 17.326 19.9874 17.326C21.2324 17.326 22.0944 16.416 22.0944 15.22C22.0954 14.021 21.2324 13.017 19.9864 13.017ZM22.0464 24.603L24.9694 27.428C25.5444 28.049 25.5444 28.959 24.9694 29.534C24.3474 30.155 23.3884 30.155 22.9094 29.534L19.9874 26.661L17.1614 29.534C16.8744 29.821 16.4904 29.964 16.0584 29.964C15.7234 29.964 15.3404 29.82 15.0044 29.534C14.4294 28.959 14.4294 28.049 15.0044 27.427L17.9744 24.602C16.9018 24.2844 15.8729 23.8346 14.9114 23.263C14.1924 22.88 14.0494 21.923 14.4324 21.204C14.9114 20.486 15.7734 20.295 16.5404 20.774C17.579 21.4078 18.7722 21.7431 19.9889 21.7431C21.2056 21.7431 22.3988 21.4078 23.4374 20.774C24.2044 20.295 25.1134 20.486 25.5444 21.204C25.9764 21.923 25.7834 22.879 25.1124 23.263C24.2034 23.838 23.1494 24.269 22.0474 24.604L22.0464 24.603Z" fill="white"/>
</svg>
