<svg width="40" height="40" viewBox="0 0 40 40" fill="none" xmlns="http://www.w3.org/2000/svg">
<rect width="40" height="40" rx="20" fill="#BBC1C7"/>
<path d="M31.6425 12.937C30.8075 13.307 29.9105 13.557 28.9675 13.67C29.9405 13.0877 30.6685 12.1714 31.0155 11.092C30.1014 11.6349 29.1009 12.0172 28.0575 12.222C27.3559 11.4728 26.4266 10.9763 25.4138 10.8094C24.4011 10.6426 23.3616 10.8147 22.4568 11.2992C21.5519 11.7837 20.8323 12.5533 20.4097 13.4887C19.9871 14.424 19.8851 15.4727 20.1195 16.472C18.2672 16.379 16.4552 15.8975 14.8009 15.0589C13.1467 14.2202 11.6874 13.0431 10.5175 11.604C10.1175 12.294 9.88752 13.094 9.88752 13.946C9.88708 14.713 10.076 15.4682 10.4374 16.1447C10.7988 16.8212 11.3217 17.398 11.9595 17.824C11.2198 17.8004 10.4964 17.6005 9.84952 17.241V17.301C9.84945 18.3767 10.2216 19.4193 10.9027 20.252C11.5839 21.0846 12.5321 21.6559 13.5865 21.869C12.9003 22.0547 12.1809 22.082 11.4825 21.949C11.78 22.8746 12.3595 23.684 13.1399 24.2639C13.9203 24.8438 14.8624 25.1651 15.8345 25.183C14.1844 26.4784 12.1464 27.181 10.0485 27.178C9.6769 27.1781 9.3056 27.1564 8.93652 27.113C11.066 28.4821 13.5449 29.2088 16.0765 29.206C24.6465 29.206 29.3315 22.108 29.3315 15.952C29.3315 15.752 29.3265 15.55 29.3175 15.35C30.2288 14.6909 31.0154 13.8749 31.6405 12.94L31.6425 12.937Z" fill="white"/>
</svg>
