<svg width="32" height="32" viewBox="0 0 32 32" fill="none" xmlns="http://www.w3.org/2000/svg">
<rect width="32" height="32" rx="16" fill="#BBC1C7"/>
<g clip-path="url(#clip0_21_1135)">
<path d="M25.4218 20.8725C25.3681 20.7824 25.0356 20.0599 23.4354 18.5748C21.7603 17.0197 21.9853 17.2722 24.003 14.5832C25.2318 12.9456 25.7231 11.9455 25.5693 11.518C25.4231 11.1105 24.5193 11.218 24.5193 11.218L21.514 11.2355C21.514 11.2355 21.2915 11.2055 21.1253 11.3042C20.964 11.4018 20.8603 11.6268 20.8603 11.6268C20.8603 11.6268 20.384 12.8944 19.7489 13.9719C18.4101 16.2459 17.8738 16.3659 17.655 16.2246C17.1462 15.8958 17.2737 14.902 17.2737 14.197C17.2737 11.993 17.6075 11.0742 16.6224 10.8367C16.2949 10.758 16.0549 10.7054 15.2186 10.6967C14.146 10.6854 13.2372 10.7004 12.7234 10.9517C12.3809 11.1192 12.1171 11.493 12.2784 11.5143C12.4771 11.5405 12.9272 11.6355 13.1659 11.9605C13.4747 12.3793 13.4635 13.3219 13.4635 13.3219C13.4635 13.3219 13.641 15.9158 13.0497 16.2384C12.6434 16.4596 12.0871 16.0083 10.8933 13.9444C10.282 12.8881 9.81944 11.7193 9.81944 11.7193C9.81944 11.7193 9.73068 11.5018 9.57192 11.3855C9.3794 11.2442 9.10939 11.1992 9.10939 11.1992L6.25167 11.2167C6.25167 11.2167 5.82289 11.2292 5.66538 11.4155C5.52537 11.5818 5.65413 11.9243 5.65413 11.9243C5.65413 11.9243 7.8918 17.1584 10.4245 19.7974C12.7484 22.2163 15.3861 22.0575 15.3861 22.0575H16.5812C16.5812 22.0575 16.9425 22.0175 17.1262 21.8188C17.2962 21.6363 17.29 21.2937 17.29 21.2937C17.29 21.2937 17.2662 19.6899 18.0113 19.4536C18.7451 19.2211 19.6877 21.0037 20.6865 21.69C21.4415 22.2088 22.0153 22.095 22.0153 22.095L24.6868 22.0575C24.6868 22.0575 26.0844 21.9713 25.4218 20.8725Z" fill="white"/>
</g>
<defs>
<clipPath id="clip0_21_1135">
<rect width="20" height="20" fill="white" transform="translate(5.6001 6.3999)"/>
</clipPath>
</defs>
</svg>
