<svg width="40" height="40" viewBox="0 0 40 40" fill="none" xmlns="http://www.w3.org/2000/svg">
<rect width="40" height="40" rx="20" fill="#BBC1C7"/>
<g clip-path="url(#clip0_31_1915)">
<path d="M31.7861 25.3671C31.7216 25.2591 31.3225 24.392 29.4024 22.6099C27.3923 20.7438 27.6623 21.0468 30.0835 17.8201C31.5581 15.8549 32.1476 14.6548 31.9631 14.1418C31.7876 13.6527 30.703 13.7818 30.703 13.7818L27.0967 13.8028C27.0967 13.8028 26.8297 13.7667 26.6302 13.8853C26.4367 14.0023 26.3122 14.2723 26.3122 14.2723C26.3122 14.2723 25.7406 15.7934 24.9786 17.0865C23.372 19.8152 22.7284 19.9592 22.4659 19.7897C21.8554 19.3952 22.0084 18.2026 22.0084 17.3565C22.0084 14.7118 22.4089 13.6092 21.2268 13.3242C20.8338 13.2297 20.5458 13.1667 19.5422 13.1562C18.2551 13.1427 17.1645 13.1607 16.548 13.4622C16.1369 13.6632 15.8204 14.1118 16.0139 14.1373C16.2524 14.1688 16.7925 14.2828 17.079 14.6728C17.4495 15.1754 17.436 16.3064 17.436 16.3064C17.436 16.3064 17.649 19.4192 16.9395 19.8062C16.452 20.0717 15.7844 19.5302 14.3518 17.0535C13.6182 15.7859 13.0632 14.3833 13.0632 14.3833C13.0632 14.3833 12.9567 14.1223 12.7662 13.9828C12.5352 13.8133 12.2111 13.7592 12.2111 13.7592L8.78189 13.7803C8.78189 13.7803 8.26735 13.7953 8.07834 14.0188C7.91033 14.2183 8.06484 14.6293 8.06484 14.6293C8.06484 14.6293 10.75 20.9103 13.7893 24.077C16.578 26.9797 19.7432 26.7892 19.7432 26.7892H21.1773C21.1773 26.7892 21.6108 26.7412 21.8314 26.5027C22.0354 26.2837 22.0279 25.8726 22.0279 25.8726C22.0279 25.8726 21.9994 23.948 22.8934 23.6645C23.774 23.3855 24.9051 25.5246 26.1037 26.3482C27.0097 26.9707 27.6983 26.8342 27.6983 26.8342L30.904 26.7892C30.904 26.7892 32.5811 26.6857 31.7861 25.3671Z" fill="white"/>
</g>
<defs>
<clipPath id="clip0_31_1915">
<rect width="24" height="24" fill="white" transform="translate(8 8)"/>
</clipPath>
</defs>
</svg>
